<svg width="17" height="16" viewBox="0 0 17 16" fill="none" xmlns="http://www.w3.org/2000/svg">
<g opacity="0.6">
<g opacity="0.6">
<g opacity="0.6">
<mask id="path-1-inside-1" fill="white">
<path d="M15.876 0.658501H15.349V0.3295C15.349 0.242111 15.3143 0.158301 15.2525 0.096508C15.1907 0.0347148 15.1069 0 15.0195 0C14.9321 0 14.8483 0.0347148 14.7865 0.096508C14.7247 0.158301 14.69 0.242111 14.69 0.3295V0.658501H13.7V0.3295C13.7 0.242111 13.6653 0.158301 13.6035 0.096508C13.5417 0.0347148 13.4579 0 13.3705 0C13.2831 0 13.1993 0.0347148 13.1375 0.096508C13.0757 0.158301 13.041 0.242111 13.041 0.3295V0.658501H12.053V0.3295C12.053 0.242111 12.0183 0.158301 11.9565 0.096508C11.8947 0.0347148 11.8109 0 11.7235 0C11.6361 0 11.5523 0.0347148 11.4905 0.096508C11.4287 0.158301 11.394 0.242111 11.394 0.3295V0.658501H10.406V0.3295C10.406 0.242111 10.3713 0.158301 10.3095 0.096508C10.2477 0.0347148 10.1639 0 10.0765 0C9.98911 0 9.9053 0.0347148 9.84351 0.096508C9.78172 0.158301 9.747 0.242111 9.747 0.3295V0.658501H8.761V0.3295C8.761 0.242111 8.72628 0.158301 8.66449 0.096508C8.6027 0.0347148 8.51889 0 8.4315 0C8.34411 0 8.2603 0.0347148 8.19851 0.096508C8.13671 0.158301 8.102 0.242111 8.102 0.3295V0.658501H7.115V0.3295C7.115 0.242111 7.08029 0.158301 7.01849 0.096508C6.9567 0.0347148 6.87289 0 6.7855 0C6.69811 0 6.6143 0.0347148 6.55251 0.096508C6.49072 0.158301 6.456 0.242111 6.456 0.3295V0.658501H5.468V0.3295C5.468 0.242111 5.43329 0.158301 5.37149 0.096508C5.3097 0.0347148 5.22589 0 5.1385 0C5.05111 0 4.9673 0.0347148 4.90551 0.096508C4.84372 0.158301 4.809 0.242111 4.809 0.3295V0.658501H3.821V0.3295C3.821 0.242111 3.78628 0.158301 3.72449 0.096508C3.6627 0.0347148 3.57889 0 3.4915 0C3.40411 0 3.3203 0.0347148 3.25851 0.096508C3.19671 0.158301 3.162 0.242111 3.162 0.3295V0.658501H2.174V0.3295C2.174 0.242111 2.13929 0.158301 2.07749 0.096508C2.0157 0.0347148 1.93189 0 1.8445 0C1.75711 0 1.6733 0.0347148 1.61151 0.096508C1.54972 0.158301 1.515 0.242111 1.515 0.3295V0.658501H0.988C0.726047 0.658765 0.474899 0.762943 0.289671 0.948172C0.104442 1.1334 0.000264733 1.38455 0 1.6465L0 14.1625C0.000264733 14.4245 0.104442 14.6756 0.289671 14.8608C0.474899 15.0461 0.726047 15.1502 0.988 15.1505H15.876C16.138 15.1502 16.3891 15.0461 16.5743 14.8608C16.7596 14.6756 16.8637 14.4245 16.864 14.1625V1.6465C16.8637 1.38455 16.7596 1.1334 16.5743 0.948172C16.3891 0.762943 16.138 0.658765 15.876 0.658501ZM15.876 14.4925H0.988C0.900825 14.4922 0.817296 14.4575 0.755653 14.3958C0.694011 14.3342 0.659264 14.2507 0.659 14.1635V3.9525H6.95C7.03739 3.9525 7.1212 3.91778 7.18299 3.85599C7.24478 3.7942 7.2795 3.71039 7.2795 3.623C7.2795 3.53561 7.24478 3.4518 7.18299 3.39001C7.1212 3.32822 7.03739 3.2935 6.95 3.2935H0.659V1.6465C0.658471 1.60291 0.666584 1.55965 0.682868 1.51922C0.699153 1.47878 0.723287 1.44197 0.753877 1.41092C0.784467 1.37986 0.820907 1.35518 0.861092 1.33829C0.901276 1.32139 0.944409 1.31263 0.988 1.3125H1.515V2.2185C1.515 2.30589 1.54972 2.3897 1.61151 2.45149C1.6733 2.51329 1.75711 2.548 1.8445 2.548C1.93189 2.548 2.0157 2.51329 2.07749 2.45149C2.13929 2.3897 2.174 2.30589 2.174 2.2185V1.3125H3.162V2.2185C3.162 2.30589 3.19671 2.3897 3.25851 2.45149C3.3203 2.51329 3.40411 2.548 3.4915 2.548C3.57889 2.548 3.6627 2.51329 3.72449 2.45149C3.78628 2.3897 3.821 2.30589 3.821 2.2185V1.3125H4.809V2.2185C4.809 2.30589 4.84372 2.3897 4.90551 2.45149C4.9673 2.51329 5.05111 2.548 5.1385 2.548C5.22589 2.548 5.3097 2.51329 5.37149 2.45149C5.43329 2.3897 5.468 2.30589 5.468 2.2185V1.3125H6.456V2.2185C6.456 2.30589 6.49072 2.3897 6.55251 2.45149C6.6143 2.51329 6.69811 2.548 6.7855 2.548C6.87289 2.548 6.9567 2.51329 7.01849 2.45149C7.08029 2.3897 7.115 2.30589 7.115 2.2185V1.3125H8.1V2.2185C8.1 2.30589 8.13472 2.3897 8.19651 2.45149C8.2583 2.51329 8.34211 2.548 8.4295 2.548C8.51689 2.548 8.6007 2.51329 8.66249 2.45149C8.72429 2.3897 8.759 2.30589 8.759 2.2185V1.3125H9.747V2.2185C9.747 2.30589 9.78172 2.3897 9.84351 2.45149C9.9053 2.51329 9.98911 2.548 10.0765 2.548C10.1639 2.548 10.2477 2.51329 10.3095 2.45149C10.3713 2.3897 10.406 2.30589 10.406 2.2185V1.3125H11.4V2.2185C11.4 2.30589 11.4347 2.3897 11.4965 2.45149C11.5583 2.51329 11.6421 2.548 11.7295 2.548C11.8169 2.548 11.9007 2.51329 11.9625 2.45149C12.0243 2.3897 12.059 2.30589 12.059 2.2185V1.3125H13.047V2.2185C13.047 2.30589 13.0817 2.3897 13.1435 2.45149C13.2053 2.51329 13.2891 2.548 13.3765 2.548C13.4639 2.548 13.5477 2.51329 13.6095 2.45149C13.6713 2.3897 13.706 2.30589 13.706 2.2185V1.3125H14.694V2.2185C14.694 2.30589 14.7287 2.3897 14.7905 2.45149C14.8523 2.51329 14.9361 2.548 15.0235 2.548C15.1109 2.548 15.1947 2.51329 15.2565 2.45149C15.3183 2.3897 15.353 2.30589 15.353 2.2185V1.3125H15.88C15.9672 1.31276 16.0507 1.34751 16.1123 1.40915C16.174 1.4708 16.2087 1.55433 16.209 1.6415V3.2885H9.914C9.82661 3.2885 9.7428 3.32321 9.68101 3.38501C9.61922 3.4468 9.5845 3.53061 9.5845 3.618C9.5845 3.70539 9.61922 3.7892 9.68101 3.85099C9.7428 3.91279 9.82661 3.9475 9.914 3.9475H16.205V14.1625C16.205 14.2498 16.1704 14.3336 16.1087 14.3955C16.047 14.4574 15.9633 14.4922 15.876 14.4925Z"/>
</mask>
<path d="M15.876 0.658501H15.349V0.3295C15.349 0.242111 15.3143 0.158301 15.2525 0.096508C15.1907 0.0347148 15.1069 0 15.0195 0C14.9321 0 14.8483 0.0347148 14.7865 0.096508C14.7247 0.158301 14.69 0.242111 14.69 0.3295V0.658501H13.7V0.3295C13.7 0.242111 13.6653 0.158301 13.6035 0.096508C13.5417 0.0347148 13.4579 0 13.3705 0C13.2831 0 13.1993 0.0347148 13.1375 0.096508C13.0757 0.158301 13.041 0.242111 13.041 0.3295V0.658501H12.053V0.3295C12.053 0.242111 12.0183 0.158301 11.9565 0.096508C11.8947 0.0347148 11.8109 0 11.7235 0C11.6361 0 11.5523 0.0347148 11.4905 0.096508C11.4287 0.158301 11.394 0.242111 11.394 0.3295V0.658501H10.406V0.3295C10.406 0.242111 10.3713 0.158301 10.3095 0.096508C10.2477 0.0347148 10.1639 0 10.0765 0C9.98911 0 9.9053 0.0347148 9.84351 0.096508C9.78172 0.158301 9.747 0.242111 9.747 0.3295V0.658501H8.761V0.3295C8.761 0.242111 8.72628 0.158301 8.66449 0.096508C8.6027 0.0347148 8.51889 0 8.4315 0C8.34411 0 8.2603 0.0347148 8.19851 0.096508C8.13671 0.158301 8.102 0.242111 8.102 0.3295V0.658501H7.115V0.3295C7.115 0.242111 7.08029 0.158301 7.01849 0.096508C6.9567 0.0347148 6.87289 0 6.7855 0C6.69811 0 6.6143 0.0347148 6.55251 0.096508C6.49072 0.158301 6.456 0.242111 6.456 0.3295V0.658501H5.468V0.3295C5.468 0.242111 5.43329 0.158301 5.37149 0.096508C5.3097 0.0347148 5.22589 0 5.1385 0C5.05111 0 4.9673 0.0347148 4.90551 0.096508C4.84372 0.158301 4.809 0.242111 4.809 0.3295V0.658501H3.821V0.3295C3.821 0.242111 3.78628 0.158301 3.72449 0.096508C3.6627 0.0347148 3.57889 0 3.4915 0C3.40411 0 3.3203 0.0347148 3.25851 0.096508C3.19671 0.158301 3.162 0.242111 3.162 0.3295V0.658501H2.174V0.3295C2.174 0.242111 2.13929 0.158301 2.07749 0.096508C2.0157 0.0347148 1.93189 0 1.8445 0C1.75711 0 1.6733 0.0347148 1.61151 0.096508C1.54972 0.158301 1.515 0.242111 1.515 0.3295V0.658501H0.988C0.726047 0.658765 0.474899 0.762943 0.289671 0.948172C0.104442 1.1334 0.000264733 1.38455 0 1.6465L0 14.1625C0.000264733 14.4245 0.104442 14.6756 0.289671 14.8608C0.474899 15.0461 0.726047 15.1502 0.988 15.1505H15.876C16.138 15.1502 16.3891 15.0461 16.5743 14.8608C16.7596 14.6756 16.8637 14.4245 16.864 14.1625V1.6465C16.8637 1.38455 16.7596 1.1334 16.5743 0.948172C16.3891 0.762943 16.138 0.658765 15.876 0.658501ZM15.876 14.4925H0.988C0.900825 14.4922 0.817296 14.4575 0.755653 14.3958C0.694011 14.3342 0.659264 14.2507 0.659 14.1635V3.9525H6.95C7.03739 3.9525 7.1212 3.91778 7.18299 3.85599C7.24478 3.7942 7.2795 3.71039 7.2795 3.623C7.2795 3.53561 7.24478 3.4518 7.18299 3.39001C7.1212 3.32822 7.03739 3.2935 6.95 3.2935H0.659V1.6465C0.658471 1.60291 0.666584 1.55965 0.682868 1.51922C0.699153 1.47878 0.723287 1.44197 0.753877 1.41092C0.784467 1.37986 0.820907 1.35518 0.861092 1.33829C0.901276 1.32139 0.944409 1.31263 0.988 1.3125H1.515V2.2185C1.515 2.30589 1.54972 2.3897 1.61151 2.45149C1.6733 2.51329 1.75711 2.548 1.8445 2.548C1.93189 2.548 2.0157 2.51329 2.07749 2.45149C2.13929 2.3897 2.174 2.30589 2.174 2.2185V1.3125H3.162V2.2185C3.162 2.30589 3.19671 2.3897 3.25851 2.45149C3.3203 2.51329 3.40411 2.548 3.4915 2.548C3.57889 2.548 3.6627 2.51329 3.72449 2.45149C3.78628 2.3897 3.821 2.30589 3.821 2.2185V1.3125H4.809V2.2185C4.809 2.30589 4.84372 2.3897 4.90551 2.45149C4.9673 2.51329 5.05111 2.548 5.1385 2.548C5.22589 2.548 5.3097 2.51329 5.37149 2.45149C5.43329 2.3897 5.468 2.30589 5.468 2.2185V1.3125H6.456V2.2185C6.456 2.30589 6.49072 2.3897 6.55251 2.45149C6.6143 2.51329 6.69811 2.548 6.7855 2.548C6.87289 2.548 6.9567 2.51329 7.01849 2.45149C7.08029 2.3897 7.115 2.30589 7.115 2.2185V1.3125H8.1V2.2185C8.1 2.30589 8.13472 2.3897 8.19651 2.45149C8.2583 2.51329 8.34211 2.548 8.4295 2.548C8.51689 2.548 8.6007 2.51329 8.66249 2.45149C8.72429 2.3897 8.759 2.30589 8.759 2.2185V1.3125H9.747V2.2185C9.747 2.30589 9.78172 2.3897 9.84351 2.45149C9.9053 2.51329 9.98911 2.548 10.0765 2.548C10.1639 2.548 10.2477 2.51329 10.3095 2.45149C10.3713 2.3897 10.406 2.30589 10.406 2.2185V1.3125H11.4V2.2185C11.4 2.30589 11.4347 2.3897 11.4965 2.45149C11.5583 2.51329 11.6421 2.548 11.7295 2.548C11.8169 2.548 11.9007 2.51329 11.9625 2.45149C12.0243 2.3897 12.059 2.30589 12.059 2.2185V1.3125H13.047V2.2185C13.047 2.30589 13.0817 2.3897 13.1435 2.45149C13.2053 2.51329 13.2891 2.548 13.3765 2.548C13.4639 2.548 13.5477 2.51329 13.6095 2.45149C13.6713 2.3897 13.706 2.30589 13.706 2.2185V1.3125H14.694V2.2185C14.694 2.30589 14.7287 2.3897 14.7905 2.45149C14.8523 2.51329 14.9361 2.548 15.0235 2.548C15.1109 2.548 15.1947 2.51329 15.2565 2.45149C15.3183 2.3897 15.353 2.30589 15.353 2.2185V1.3125H15.88C15.9672 1.31276 16.0507 1.34751 16.1123 1.40915C16.174 1.4708 16.2087 1.55433 16.209 1.6415V3.2885H9.914C9.82661 3.2885 9.7428 3.32321 9.68101 3.38501C9.61922 3.4468 9.5845 3.53061 9.5845 3.618C9.5845 3.70539 9.61922 3.7892 9.68101 3.85099C9.7428 3.91279 9.82661 3.9475 9.914 3.9475H16.205V14.1625C16.205 14.2498 16.1704 14.3336 16.1087 14.3955C16.047 14.4574 15.9633 14.4922 15.876 14.4925Z" fill="white" stroke="white" stroke-width="2" mask="url(#path-1-inside-1)"/>
</g>
<g opacity="0.6">
<mask id="path-2-inside-2" fill="white">
<path d="M10.0609 5.71849L9.33495 5.5575L8.98096 4.93849C8.92629 4.84214 8.84721 4.76188 8.75168 4.70578C8.65616 4.64968 8.54755 4.61972 8.43677 4.61891C8.32599 4.6181 8.21695 4.64648 8.12061 4.70117C8.02427 4.75587 7.94404 4.83496 7.88796 4.9305L7.51096 5.5705L6.81095 5.7155C6.70271 5.73819 6.60234 5.78886 6.51983 5.86249C6.43731 5.93612 6.37555 6.03011 6.34073 6.13507C6.30592 6.24003 6.29925 6.35229 6.3214 6.46063C6.34355 6.56898 6.39374 6.66963 6.46695 6.7525L6.95995 7.3095L6.88196 8.02249C6.87009 8.1324 6.88729 8.24352 6.93186 8.34468C6.97643 8.44585 7.04678 8.53352 7.1359 8.59894C7.22502 8.66436 7.32975 8.70522 7.43963 8.71742C7.5495 8.72963 7.66065 8.71277 7.76195 8.6685L8.44295 8.3685L9.09496 8.66249C9.1958 8.70776 9.30675 8.72578 9.41674 8.71477C9.52672 8.70375 9.6319 8.66409 9.72176 8.59973C9.81163 8.53537 9.88304 8.44856 9.92887 8.34798C9.9747 8.24739 9.99335 8.13654 9.98296 8.02649L9.91095 7.2865L10.391 6.75749C10.4651 6.67554 10.5165 6.57556 10.54 6.46753C10.5635 6.3595 10.5582 6.2472 10.5247 6.14185C10.4912 6.03649 10.4307 5.94177 10.3491 5.86713C10.2676 5.79249 10.1679 5.74055 10.06 5.71649L10.0609 5.71849ZM9.32596 6.95349C9.29508 6.98747 9.27164 7.02753 9.25718 7.07111C9.24271 7.11468 9.23752 7.1608 9.24195 7.2065L9.32296 8.0445L8.58095 7.7105C8.53892 7.69184 8.49344 7.68219 8.44745 7.68219C8.40146 7.68219 8.35599 7.69184 8.31395 7.7105L7.54195 8.0465L7.63096 7.2375C7.63593 7.19186 7.63128 7.14568 7.61733 7.10193C7.60338 7.05819 7.58044 7.01783 7.54996 6.98349L6.99195 6.3535L7.79195 6.18849C7.83694 6.17924 7.87949 6.16067 7.91686 6.13397C7.95423 6.10728 7.98561 6.07305 8.00896 6.03349L8.43595 5.3075L8.83596 6.01349C8.85877 6.05338 8.88969 6.08805 8.92672 6.11527C8.96375 6.14248 9.00607 6.16164 9.05095 6.1715L9.87296 6.3535L9.32596 6.95349Z"/>
</mask>
<path d="M10.0609 5.71849L9.33495 5.5575L8.98096 4.93849C8.92629 4.84214 8.84721 4.76188 8.75168 4.70578C8.65616 4.64968 8.54755 4.61972 8.43677 4.61891C8.32599 4.6181 8.21695 4.64648 8.12061 4.70117C8.02427 4.75587 7.94404 4.83496 7.88796 4.9305L7.51096 5.5705L6.81095 5.7155C6.70271 5.73819 6.60234 5.78886 6.51983 5.86249C6.43731 5.93612 6.37555 6.03011 6.34073 6.13507C6.30592 6.24003 6.29925 6.35229 6.3214 6.46063C6.34355 6.56898 6.39374 6.66963 6.46695 6.7525L6.95995 7.3095L6.88196 8.02249C6.87009 8.1324 6.88729 8.24352 6.93186 8.34468C6.97643 8.44585 7.04678 8.53352 7.1359 8.59894C7.22502 8.66436 7.32975 8.70522 7.43963 8.71742C7.5495 8.72963 7.66065 8.71277 7.76195 8.6685L8.44295 8.3685L9.09496 8.66249C9.1958 8.70776 9.30675 8.72578 9.41674 8.71477C9.52672 8.70375 9.6319 8.66409 9.72176 8.59973C9.81163 8.53537 9.88304 8.44856 9.92887 8.34798C9.9747 8.24739 9.99335 8.13654 9.98296 8.02649L9.91095 7.2865L10.391 6.75749C10.4651 6.67554 10.5165 6.57556 10.54 6.46753C10.5635 6.3595 10.5582 6.2472 10.5247 6.14185C10.4912 6.03649 10.4307 5.94177 10.3491 5.86713C10.2676 5.79249 10.1679 5.74055 10.06 5.71649L10.0609 5.71849ZM9.32596 6.95349C9.29508 6.98747 9.27164 7.02753 9.25718 7.07111C9.24271 7.11468 9.23752 7.1608 9.24195 7.2065L9.32296 8.0445L8.58095 7.7105C8.53892 7.69184 8.49344 7.68219 8.44745 7.68219C8.40146 7.68219 8.35599 7.69184 8.31395 7.7105L7.54195 8.0465L7.63096 7.2375C7.63593 7.19186 7.63128 7.14568 7.61733 7.10193C7.60338 7.05819 7.58044 7.01783 7.54996 6.98349L6.99195 6.3535L7.79195 6.18849C7.83694 6.17924 7.87949 6.16067 7.91686 6.13397C7.95423 6.10728 7.98561 6.07305 8.00896 6.03349L8.43595 5.3075L8.83596 6.01349C8.85877 6.05338 8.88969 6.08805 8.92672 6.11527C8.96375 6.14248 9.00607 6.16164 9.05095 6.1715L9.87296 6.3535L9.32596 6.95349Z" fill="white"/>
<path d="M10.0609 5.71849L9.84445 6.69478L11.8864 7.14759L10.9567 5.27402L10.0609 5.71849ZM9.33495 5.5575L8.46687 6.05392L8.68651 6.43799L9.11845 6.53378L9.33495 5.5575ZM8.98096 4.93849L8.11121 5.432L8.11288 5.43492L8.98096 4.93849ZM7.88796 4.9305L8.74958 5.43805L8.75039 5.43668L7.88796 4.9305ZM7.51096 5.5705L7.7138 6.54971L8.14769 6.45983L8.37258 6.07805L7.51096 5.5705ZM6.81095 5.7155L6.60811 4.73629L6.60583 4.73677L6.81095 5.7155ZM6.46695 6.7525L5.71753 7.41459L5.71814 7.41528L6.46695 6.7525ZM6.95995 7.3095L7.95402 7.41823L8.00215 6.97819L7.70877 6.64672L6.95995 7.3095ZM6.88196 8.02249L5.88789 7.91376L5.88775 7.91506L6.88196 8.02249ZM7.76195 8.6685L8.16235 9.58485L8.1651 9.58364L7.76195 8.6685ZM8.44295 8.3685L8.854 7.45689L8.44769 7.27368L8.03981 7.45337L8.44295 8.3685ZM9.09496 8.66249L8.68391 9.57411L8.68547 9.57481L9.09496 8.66249ZM9.98296 8.02649L10.9785 7.93247L10.9783 7.92964L9.98296 8.02649ZM9.91095 7.2865L9.17037 6.61453L8.87276 6.94253L8.91566 7.38335L9.91095 7.2865ZM10.391 6.75749L11.1315 7.42946L11.1323 7.42861L10.391 6.75749ZM10.06 5.71649L10.2776 4.74046L8.23316 4.28464L9.16417 6.16097L10.06 5.71649ZM9.32596 6.95349L8.58697 6.27977L8.58594 6.28091L9.32596 6.95349ZM9.24195 7.2065L10.2373 7.11028L10.2373 7.11008L9.24195 7.2065ZM9.32296 8.0445L8.91249 8.95637L10.4842 9.66383L10.3183 7.94828L9.32296 8.0445ZM8.58095 7.7105L8.99142 6.79861L8.98673 6.79652L8.58095 7.7105ZM8.44745 7.68219V6.68219V7.68219ZM8.31395 7.7105L8.71304 8.62744L8.71973 8.62447L8.31395 7.7105ZM7.54195 8.0465L6.54795 7.93714L6.3593 9.65183L7.94102 8.96342L7.54195 8.0465ZM7.63096 7.2375L8.62496 7.34686L8.62508 7.34576L7.63096 7.2375ZM7.54996 6.98349L6.80139 7.64654L6.80204 7.64728L7.54996 6.98349ZM6.99195 6.3535L6.78994 5.37412L5.09774 5.72315L6.24337 7.01655L6.99195 6.3535ZM7.79195 6.18849L7.59037 5.20902L7.58994 5.20911L7.79195 6.18849ZM8.00896 6.03349L8.87012 6.54184L8.87093 6.54045L8.00896 6.03349ZM8.43595 5.3075L9.306 4.81453L8.45211 3.30747L7.57398 4.80054L8.43595 5.3075ZM8.83596 6.01349L7.9659 6.50646L7.9679 6.50996L8.83596 6.01349ZM9.05095 6.1715L9.26714 5.19514L9.26551 5.19478L9.05095 6.1715ZM9.87296 6.3535L10.6119 7.02722L11.7758 5.75061L10.0891 5.37715L9.87296 6.3535ZM10.2774 4.74221L9.55145 4.58121L9.11845 6.53378L9.84445 6.69478L10.2774 4.74221ZM10.203 5.06107L9.84904 4.44207L8.11288 5.43492L8.46687 6.05392L10.203 5.06107ZM9.85071 4.44499C9.70938 4.19592 9.50497 3.98847 9.25808 3.84348L8.24529 5.56808C8.18945 5.53529 8.1432 5.48836 8.11122 5.432L9.85071 4.44499ZM9.25808 3.84348C9.01116 3.69847 8.73042 3.62104 8.44409 3.61894L8.42945 5.61889C8.36468 5.61841 8.30116 5.60089 8.24529 5.56808L9.25808 3.84348ZM8.44409 3.61894C8.15772 3.61684 7.87587 3.6902 7.62689 3.83155L8.61433 5.57079C8.55803 5.60276 8.49427 5.61936 8.42945 5.61889L8.44409 3.61894ZM7.62689 3.83155C7.37789 3.97292 7.17048 4.17735 7.02553 4.42432L8.75039 5.43668C8.71759 5.49256 8.67066 5.53882 8.61433 5.57079L7.62689 3.83155ZM7.02634 4.42295L6.64934 5.06295L8.37258 6.07805L8.74958 5.43805L7.02634 4.42295ZM7.30812 4.59129L6.60811 4.73629L7.01379 6.69471L7.7138 6.54971L7.30812 4.59129ZM6.60583 4.73677C6.32634 4.79534 6.06713 4.92621 5.85404 5.11634L7.18561 6.60864C7.13755 6.65151 7.07908 6.68103 7.01607 6.69424L6.60583 4.73677ZM5.85404 5.11634C5.64099 5.30645 5.48152 5.54915 5.39159 5.82022L7.28987 6.44993C7.26959 6.51107 7.23363 6.56579 7.18561 6.60864L5.85404 5.11634ZM5.39159 5.82022C5.30167 6.09129 5.28448 6.38117 5.34166 6.66092L7.30114 6.26035C7.31403 6.32341 7.31016 6.38878 7.28987 6.44993L5.39159 5.82022ZM5.34166 6.66092C5.39885 6.94065 5.52843 7.20055 5.71753 7.41459L7.21638 6.09042C7.25905 6.13871 7.28825 6.19731 7.30114 6.26035L5.34166 6.66092ZM5.71814 7.41528L6.21114 7.97228L7.70877 6.64672L7.21577 6.08972L5.71814 7.41528ZM5.96588 7.20076L5.88789 7.91376L7.87603 8.13122L7.95402 7.41823L5.96588 7.20076ZM5.88775 7.91506C5.85706 8.19913 5.90152 8.48631 6.01673 8.74783L7.84699 7.94153C7.87307 8.00072 7.88312 8.06568 7.87618 8.12992L5.88775 7.91506ZM6.01673 8.74783C6.13193 9.00934 6.3138 9.23597 6.54414 9.40505L7.72766 7.79283C7.77977 7.83108 7.82093 7.88236 7.84699 7.94153L6.01673 8.74783ZM6.54414 9.40505C6.77448 9.57414 7.0452 9.67976 7.32921 9.71131L7.55005 7.72354C7.6143 7.73068 7.67555 7.75457 7.72766 7.79283L6.54414 9.40505ZM7.32921 9.71131C7.61314 9.74285 7.90045 9.69928 8.16235 9.58485L7.36155 7.75216C7.42085 7.72625 7.48586 7.71641 7.55005 7.72354L7.32921 9.71131ZM8.1651 9.58364L8.8461 9.28364L8.03981 7.45337L7.35881 7.75337L8.1651 9.58364ZM8.03191 9.28012L8.68391 9.57411L9.50601 7.75088L8.854 7.45689L8.03191 9.28012ZM8.68547 9.57481C8.94585 9.69168 9.23235 9.73824 9.51639 9.70979L9.31709 7.71975C9.38116 7.71333 9.44576 7.72383 9.50445 7.75018L8.68547 9.57481ZM9.51639 9.70979C9.80034 9.68135 10.0719 9.57896 10.304 9.41272L9.13948 7.78674C9.19185 7.74923 9.2531 7.72615 9.31709 7.71975L9.51639 9.70979ZM10.304 9.41272C10.5361 9.24651 10.7205 9.02235 10.8389 8.76263L9.01889 7.93333C9.04557 7.87478 9.08714 7.82423 9.13948 7.78674L10.304 9.41272ZM10.8389 8.76263C10.9572 8.50288 11.0054 8.21663 10.9785 7.93248L8.98739 8.12051C8.98134 8.05644 8.99219 7.99191 9.01889 7.93333L10.8389 8.76263ZM10.9783 7.92964L10.9063 7.18965L8.91566 7.38335L8.98766 8.12334L10.9783 7.92964ZM10.6515 7.95847L11.1315 7.42946L9.65037 6.08553L9.17037 6.61453L10.6515 7.95847ZM11.1323 7.42861C11.3239 7.21701 11.4566 6.95884 11.5172 6.67983L9.56281 6.25523C9.57649 6.19228 9.60643 6.13406 9.6496 6.08638L11.1323 7.42861ZM11.5172 6.67983C11.5778 6.40088 11.5642 6.11089 11.4777 5.83883L9.57172 6.44486C9.55222 6.38351 9.54915 6.31812 9.56281 6.25523L11.5172 6.67983ZM11.4777 5.83883C11.3912 5.5668 11.2349 5.32218 11.0243 5.12944L9.67397 6.60482C9.62647 6.56135 9.59122 6.50619 9.57172 6.44486L11.4777 5.83883ZM11.0243 5.12944C10.8137 4.93671 10.5562 4.80258 10.2776 4.74046L9.84234 6.69253C9.77951 6.67852 9.72145 6.64827 9.67397 6.60482L11.0243 5.12944ZM9.16417 6.16097L9.16516 6.16297L10.9567 5.27402L10.9557 5.27202L9.16417 6.16097ZM8.58594 6.28091C8.46131 6.41804 8.36661 6.57985 8.30812 6.75601L10.2062 7.38621C10.1767 7.47522 10.1289 7.55689 10.066 7.62608L8.58594 6.28091ZM8.30812 6.75601C8.24968 6.93201 8.22873 7.11831 8.24661 7.30291L10.2373 7.11008C10.2463 7.2033 10.2357 7.29735 10.2062 7.38621L8.30812 6.75601ZM8.24659 7.30272L8.3276 8.14072L10.3183 7.94828L10.2373 7.11028L8.24659 7.30272ZM9.73342 7.13262L8.99142 6.79862L8.17049 8.62237L8.91249 8.95637L9.73342 7.13262ZM8.98673 6.79652C8.81697 6.72116 8.63326 6.68219 8.44745 6.68219V8.68219C8.35362 8.68219 8.26087 8.66252 8.17518 8.62447L8.98673 6.79652ZM8.44745 6.68219C8.26165 6.68219 8.07794 6.72116 7.90818 6.79652L8.71973 8.62447C8.63403 8.66252 8.54128 8.68219 8.44745 8.68219V6.68219ZM7.91488 6.79358L7.14288 7.12958L7.94102 8.96342L8.71303 8.62742L7.91488 6.79358ZM8.53595 8.15585L8.62496 7.34686L6.63695 7.12815L6.54795 7.93714L8.53595 8.15585ZM8.62508 7.34576C8.64517 7.16127 8.62638 6.97472 8.57006 6.79811L6.6646 7.40575C6.63618 7.31663 6.62668 7.22245 6.63683 7.12925L8.62508 7.34576ZM8.57006 6.79811C8.51378 6.62164 8.42117 6.45862 8.29789 6.31971L6.80204 7.64728C6.73971 7.57705 6.69298 7.49473 6.6646 7.40575L8.57006 6.79811ZM8.29854 6.32044L7.74052 5.69045L6.24337 7.01655L6.80139 7.64654L8.29854 6.32044ZM7.19396 7.33289L7.99396 7.16788L7.58994 5.20911L6.78994 5.37412L7.19396 7.33289ZM7.99353 7.16797C8.17514 7.13059 8.34703 7.05561 8.4981 6.94771L7.33562 5.32024C7.41194 5.26573 7.49874 5.22788 7.59037 5.20902L7.99353 7.16797ZM8.4981 6.94771C8.64904 6.8399 8.77578 6.70165 8.87011 6.54184L7.14781 5.52515C7.19545 5.44444 7.25943 5.37466 7.33562 5.32024L8.4981 6.94771ZM8.87093 6.54045L9.29792 5.81445L7.57398 4.80054L7.14699 5.52654L8.87093 6.54045ZM7.5659 5.80046L7.96591 6.50645L9.70601 5.52053L9.306 4.81453L7.5659 5.80046ZM7.9679 6.50996C8.06002 6.67102 8.18489 6.8111 8.33454 6.92108L9.51889 5.30946C9.59449 5.36501 9.65752 5.43574 9.70401 5.51702L7.9679 6.50996ZM8.33454 6.92108C8.48411 7.03099 8.65507 7.10837 8.83639 7.14821L9.26551 5.19478C9.35707 5.2149 9.44338 5.25397 9.51889 5.30946L8.33454 6.92108ZM8.83477 7.14785L9.65678 7.32986L10.0891 5.37715L9.26714 5.19514L8.83477 7.14785ZM9.13397 5.67978L8.58697 6.27977L10.065 7.62721L10.6119 7.02722L9.13397 5.67978Z" fill="white" mask="url(#path-2-inside-2)"/>
</g>
<path opacity="0.6" d="M2.14697 7.73931V5.59887C2.14697 5.59878 2.14697 5.59868 2.14697 5.59859L2.14697 7.73931ZM1.80597 7.73943L1.64697 7.73959V5.59859C1.64724 5.33663 1.75141 5.0855 1.93664 4.90027C2.12187 4.71504 2.37302 4.61086 2.63497 4.6106L1.80597 7.73943ZM4.44697 5.1106C4.44713 5.1106 4.44729 5.1106 4.44745 5.1106C4.57661 5.11099 4.70039 5.16247 4.79174 5.25382C4.79174 5.25382 4.79175 5.25382 4.79175 5.25382C4.8831 5.34518 4.93458 5.46895 4.93497 5.59811C4.93497 5.59827 4.93497 5.59843 4.93497 5.59859C4.93497 5.59869 4.93497 5.59879 4.93497 5.5989C4.93497 5.59896 4.93497 5.59903 4.93497 5.59909L4.44697 5.1106Z" fill="white" stroke="white"/>
<path opacity="0.6" d="M11.929 7.73931V5.59887C11.929 5.59878 11.929 5.59868 11.929 5.59859L11.929 7.73931ZM11.588 7.73943L11.429 7.73959V5.59859C11.4292 5.33663 11.5334 5.0855 11.7186 4.90027C11.9039 4.71504 12.155 4.61086 12.417 4.6106L11.588 7.73943ZM14.229 5.1106C14.2291 5.1106 14.2293 5.1106 14.2295 5.1106C14.3586 5.11099 14.4824 5.16246 14.5737 5.25381C14.5737 5.25381 14.5737 5.25382 14.5738 5.25382C14.6651 5.34518 14.7166 5.46895 14.717 5.59811C14.717 5.59827 14.717 5.59843 14.717 5.59859C14.717 5.59869 14.717 5.59879 14.717 5.5989C14.717 5.59896 14.717 5.59903 14.717 5.59909L14.229 5.1106Z" fill="white" stroke="white"/>
<path opacity="0.6" d="M2.14697 12.8411V10.7007C2.14697 10.7006 2.14697 10.7005 2.14697 10.7004L2.14697 12.8411ZM1.80597 12.8412L1.64697 12.8414V10.7004C1.64724 10.4385 1.75141 10.1873 1.93664 10.0021C2.12187 9.81685 2.37302 9.71267 2.63497 9.7124L1.80597 12.8412ZM4.44697 10.2124C4.44713 10.2124 4.44729 10.2124 4.44745 10.2124C4.57661 10.2128 4.70039 10.2643 4.79174 10.3556C4.79174 10.3556 4.79175 10.3556 4.79175 10.3556C4.8831 10.447 4.93458 10.5708 4.93497 10.6999C4.93497 10.7001 4.93497 10.7002 4.93497 10.7004C4.93497 10.7005 4.93497 10.7006 4.93497 10.7007C4.93497 10.7008 4.93497 10.7008 4.93497 10.7009L4.44697 10.2124Z" fill="white" stroke="white"/>
<path opacity="0.6" d="M11.929 12.8411V10.7007C11.929 10.7006 11.929 10.7005 11.929 10.7004L11.929 12.8411ZM11.588 12.8412L11.429 12.8414V10.7004C11.4292 10.4385 11.5334 10.1873 11.7186 10.0021C11.9039 9.81685 12.155 9.71267 12.417 9.7124L11.588 12.8412ZM14.229 10.2124C14.2291 10.2124 14.2293 10.2124 14.2295 10.2124C14.3586 10.2128 14.4824 10.2643 14.5737 10.3556C14.5737 10.3556 14.5737 10.3556 14.5738 10.3556C14.6651 10.447 14.7166 10.5708 14.717 10.6999C14.717 10.7001 14.717 10.7002 14.717 10.7004C14.717 10.7005 14.717 10.7006 14.717 10.7007C14.717 10.7008 14.717 10.7008 14.717 10.7009L14.229 10.2124Z" fill="white" stroke="white"/>
<path opacity="0.6" d="M7.03796 12.8411V10.7007C7.03796 10.7006 7.03796 10.7005 7.03796 10.7004L7.03796 12.8411ZM6.69696 12.8412L6.53796 12.8414V10.7004C6.53823 10.4385 6.64239 10.1873 6.82762 10.0021C7.01285 9.81685 7.264 9.71267 7.52596 9.7124L6.69696 12.8412ZM9.33795 10.2124C9.33811 10.2124 9.33827 10.2124 9.33843 10.2124C9.46759 10.2128 9.59137 10.2643 9.68272 10.3556C9.68273 10.3556 9.68273 10.3556 9.68273 10.3556C9.77408 10.447 9.82557 10.5708 9.82596 10.6999C9.82596 10.7001 9.82596 10.7002 9.82596 10.7004C9.82596 10.7005 9.82596 10.7006 9.82596 10.7007C9.82596 10.7008 9.82596 10.7008 9.82596 10.7009L9.33795 10.2124Z" fill="white" stroke="white"/>
<path opacity="0.6" d="M8.31147 3.5024C8.34345 3.47042 8.38683 3.45245 8.43204 3.45245C8.47722 3.45245 8.52059 3.4704 8.55259 3.5024C8.55259 3.5024 8.55259 3.5024 8.55259 3.5024C8.5846 3.53441 8.60254 3.57779 8.60254 3.62296C8.60254 3.66814 8.58459 3.71152 8.55259 3.74352C8.55259 3.74352 8.55259 3.74352 8.55259 3.74352C8.52061 3.7755 8.47725 3.79346 8.43204 3.79346C8.3868 3.79346 8.34343 3.77548 8.31147 3.74352C8.31147 3.74352 8.31147 3.74352 8.31147 3.74352C8.27951 3.71156 8.26154 3.6682 8.26154 3.62296C8.26154 3.57773 8.2795 3.53437 8.31147 3.5024C8.31147 3.5024 8.31147 3.5024 8.31147 3.5024Z" fill="white" stroke="white"/>
</g>
</g>
</svg>
